<?xml version="1.0" encoding="UTF-8"?>
<svg id="Layer_2" data-name="Layer 2" xmlns="http://www.w3.org/2000/svg" viewBox="0 0 1158.74 806">
  <defs>
    <style>
      .cls-1 {
        fill: #0a0a0a;
      }
    </style>
  </defs>
  <g id="Layer_1-2" data-name="Layer 1">
    <g>
      <g>
        <path class="cls-1" d="m212.38,588.36c-9.14-4.78-19.35-7.18-30.61-7.18s-21.84,2.45-31.09,7.34c-7.61,4.03-14.02,9.44-19.26,16.21-4.83-6.97-11.01-12.49-18.53-16.53-8.72-4.67-18.39-7.02-29.02-7.02-11.27,0-21.32,2.39-30.14,7.18-4.98,2.7-9.37,6.03-13.23,9.94v-13.93H0v153.7h40.5v-90.88c0-6.16,1.38-11.43,4.14-15.79,2.76-4.35,6.38-7.7,10.84-10.05,4.46-2.34,9.57-3.51,15.31-3.51,8.5,0,15.62,2.55,21.36,7.65,5.74,5.1,8.61,12.33,8.61,21.69v90.88h40.5v-90.88c0-6.16,1.38-11.43,4.15-15.79,2.76-4.35,6.43-7.7,11-10.05,4.57-2.34,9.62-3.51,15.15-3.51,8.29,0,15.31,2.55,21.05,7.65,5.74,5.1,8.61,12.33,8.61,21.69v90.88h40.82v-97.58c0-12.54-2.66-23.17-7.97-31.89-5.32-8.71-12.55-15.46-21.69-20.25Z"/>
        <rect class="cls-1" x="260.99" y="584.37" width="40.5" height="153.7"/>
        <path class="cls-1" d="m434.97,598.33c-4.11-4.07-8.83-7.51-14.19-10.29-8.83-4.57-18.87-6.86-30.14-6.86-14.25,0-27,3.51-38.27,10.52-11.27,7.01-20.15,16.53-26.63,28.54-6.49,12.01-9.73,25.78-9.73,41.3s3.24,28.65,9.73,40.66c6.48,12.01,15.36,21.52,26.63,28.54,11.27,7.01,24.02,10.52,38.27,10.52,11.05,0,21.1-2.39,30.14-7.18,5.54-2.93,10.37-6.51,14.51-10.72v14.71h40.18v-230.24h-40.5v90.49Zm-16.58,99.89c-5.95,3.62-12.97,5.42-21.05,5.42-7.65,0-14.51-1.75-20.57-5.26-6.06-3.51-10.79-8.5-14.19-14.99-3.4-6.48-5.1-13.87-5.1-22.16s1.7-15.89,5.1-22.16c3.4-6.27,8.13-11.27,14.19-14.99,6.06-3.72,13.02-5.58,20.89-5.58s14.77,1.86,20.73,5.58c5.95,3.72,10.63,8.72,14.03,14.99,3.4,6.27,5.1,13.66,5.1,22.16s-1.7,15.62-5.1,22c-3.4,6.38-8.08,11.38-14.03,14.99Z"/>
        <path class="cls-1" d="m610.46,589.64c-8.93-5.63-19.03-8.45-30.29-8.45s-22.11,2.55-31.25,7.65c-5.2,2.9-9.75,6.46-13.71,10.63v-15.09h-40.5v153.7h40.5v-88.33c0-6.16,1.38-11.69,4.14-16.58,2.76-4.89,6.54-8.66,11.32-11.32,4.78-2.65,10.25-3.99,16.42-3.99,9.14,0,16.69,2.98,22.64,8.93,5.95,5.95,8.93,13.61,8.93,22.96v88.33h40.5v-97.26c0-10.2-2.55-19.88-7.65-29.02-5.1-9.14-12.12-16.53-21.05-22.16Z"/>
        <rect class="cls-1" x="657.8" y="584.37" width="40.5" height="153.7"/>
        <path class="cls-1" d="m831.83,597.88c-3.95-3.86-8.56-7.15-13.87-9.84-9.04-4.57-19.29-6.86-30.77-6.86-13.61,0-25.94,3.35-36.99,10.05-11.06,6.7-19.72,15.79-25.99,27.26-6.27,11.48-9.41,24.45-9.41,38.9s3.13,27.48,9.41,39.06c6.27,11.59,14.93,20.78,25.99,27.58,11.05,6.81,23.49,10.2,37.31,10.2,11.27,0,21.37-2.28,30.29-6.86,5.21-2.67,9.77-5.95,13.71-9.81v13.48c0,11.69-3.78,20.89-11.32,27.58-7.55,6.7-18.02,10.04-31.41,10.04-10.42,0-19.35-1.86-26.79-5.58-7.44-3.72-14.14-9.2-20.09-16.42l-25.83,25.83c7.44,10.63,17.38,18.86,29.82,24.71,12.44,5.84,26.95,8.77,43.53,8.77s30.45-3.14,42.89-9.41c12.44-6.27,22.16-15.04,29.18-26.31,7.01-11.27,10.52-24.45,10.52-39.54v-146.37h-40.18v13.51Zm-16.1,94.12c-5.85,3.3-12.71,4.94-20.57,4.94s-14.4-1.7-20.25-5.1c-5.85-3.4-10.42-8.08-13.71-14.03-3.3-5.95-4.94-12.65-4.94-20.09,0-7.86,1.64-14.72,4.94-20.57,3.29-5.84,7.86-10.47,13.71-13.87,5.85-3.4,12.7-5.1,20.57-5.1s14.4,1.7,20.25,5.1c5.85,3.4,10.36,8.03,13.55,13.87,3.19,5.85,4.78,12.71,4.78,20.57s-1.59,14.46-4.78,20.41c-3.19,5.95-7.71,10.58-13.55,13.87Z"/>
        <path class="cls-1" d="m1005.2,588.68c-9.04-4.99-19.4-7.49-31.09-7.49s-22.06,2.55-31.09,7.65c-5.01,2.83-9.4,6.28-13.23,10.31v-91.31h-40.5v230.24h40.5v-88.33c0-6.16,1.38-11.69,4.14-16.58,2.76-4.89,6.54-8.66,11.32-11.32,4.78-2.65,10.25-3.99,16.42-3.99,9.14,0,16.69,2.98,22.64,8.93,5.95,5.95,8.93,13.61,8.93,22.96v88.33h40.5v-97.26c0-11.69-2.5-22.05-7.49-31.09-5-9.03-12.01-16.05-21.05-21.05Z"/>
        <polygon class="cls-1" points="1158.74 584.37 1122.71 584.37 1122.71 520.28 1082.21 520.28 1082.21 584.37 1045.86 584.37 1045.86 619.77 1082.21 619.77 1082.21 738.08 1122.71 738.08 1122.71 619.77 1158.74 619.77 1158.74 584.37"/>
        <circle class="cls-1" cx="281.08" cy="535.58" r="22.96"/>
        <circle class="cls-1" cx="678.05" cy="535.58" r="22.96"/>
      </g>
      <g>
        <path class="cls-1" d="m566.94,0c-119.14,0-215.73,96.58-215.73,215.73s96.58,215.73,215.73,215.73,215.73-96.59,215.73-215.73S686.08,0,566.94,0Zm0,391.68c-97.02,0-175.95-78.93-175.95-175.95s78.93-175.95,175.95-175.95,175.95,78.93,175.95,175.95-78.93,175.95-175.95,175.95Z"/>
        <rect class="cls-1" x="546.69" y="195.48" width="40.5" height="40.5"/>
        <rect class="cls-1" x="546.69" y="131.54" width="40.5" height="40.5"/>
        <rect class="cls-1" x="546.69" y="67.61" width="40.5" height="40.5"/>
      </g>
    </g>
  </g>
</svg>